# MagicaVoxel @ Ephtracy

# group
o 

# material
mtllib MonsterBody.mtl
usemtl palette

# normals
vn -1 0 0
vn 1 0 0
vn 0 0 1
vn 0 0 -1
vn 0 -1 0
vn 0 1 0

# texcoords
vt 0.134766 0.5
vt 0.138672 0.5
vt 0.279297 0.5
vt 0.455078 0.5
vt 0.896484 0.5

# verts
v -0.4 0.3 0.5
v -0.4 0.3 -0.3
v -0.4 0.4 0.5
v -0.4 0.4 -0.3
v -0.3 0 0.5
v -0.3 0 -0.3
v -0.3 0.2 0.5
v -0.3 0.2 -0.3
v -0.3 0.3 0.5
v -0.3 0.3 -0.3
v -0.3 0.4 0.5
v -0.3 0.4 -0.3
v -0.3 0.5 0.5
v -0.3 0.5 -0.3
v -0.2 0.5 0.5
v -0.2 0.5 0.4
v -0.2 0.5 0.2
v -0.2 0.5 0
v -0.2 0.5 -0.2
v -0.2 0.5 -0.3
v -0.2 0.6 0.5
v -0.2 0.6 0.4
v -0.2 0.6 0.2
v -0.2 0.6 0
v -0.2 0.6 -0.2
v -0.2 0.6 -0.3
v 0 0.5 0.4
v 0 0.5 0.3
v 0 0.5 -0.1
v 0 0.5 -0.2
v 0 0.6 0.4
v 0 0.6 0.3
v 0 0.6 -0.1
v 0 0.6 -0.2
v 0.1 0 0.5
v 0.1 0 0.4
v 0.1 0.1 0.5
v 0.1 0.1 0.4
v 0.1 0.2 0.4
v 0.1 0.2 0.3
v 0.1 0.3 0.4
v 0.1 0.3 0.3
v 0.1 0.5 0.2
v 0.1 0.5 0
v 0.1 0.6 0.2
v 0.1 0.6 0
v 0.2 0.1 0.5
v 0.2 0.1 0.3
v 0.2 0.2 0.5
v 0.2 0.2 0.4
v 0.2 0.2 0.3
v 0.2 0.3 0.5
v 0.2 0.3 0.4
v -0.2 0.1 0.5
v -0.2 0.1 0.3
v -0.2 0.2 0.5
v -0.2 0.2 0.4
v -0.2 0.2 0.3
v -0.2 0.3 0.5
v -0.2 0.3 0.4
v -0.1 0 0.5
v -0.1 0 0.4
v -0.1 0.1 0.5
v -0.1 0.1 0.4
v -0.1 0.2 0.4
v -0.1 0.2 0.3
v -0.1 0.3 0.4
v -0.1 0.3 0.3
v -0.1 0.5 0.2
v -0.1 0.5 0
v -0.1 0.6 0.2
v -0.1 0.6 0
v 0 0.5 -0.2
v 0 0.5 -0.3
v 0 0.6 -0.2
v 0 0.6 -0.3
v 0.1 0.5 0.5
v 0.1 0.5 0.4
v 0.1 0.6 0.5
v 0.1 0.6 0.4
v 0.2 0.5 0.4
v 0.2 0.5 0.3
v 0.2 0.5 0.2
v 0.2 0.5 0
v 0.2 0.5 -0.1
v 0.2 0.5 -0.2
v 0.2 0.6 0.4
v 0.2 0.6 0.3
v 0.2 0.6 0.2
v 0.2 0.6 0
v 0.2 0.6 -0.1
v 0.2 0.6 -0.2
v 0.3 0 0.5
v 0.3 0 -0.3
v 0.3 0.2 0.5
v 0.3 0.2 -0.3
v 0.3 0.3 0.5
v 0.3 0.3 -0.3
v 0.3 0.4 0.5
v 0.3 0.4 -0.3
v 0.3 0.5 0.5
v 0.3 0.5 -0.3
v 0.4 0.3 0.5
v 0.4 0.3 -0.3
v 0.4 0.4 0.5
v 0.4 0.4 -0.3
v -0.4 0.3 0.5
v -0.4 0.4 0.5
v -0.3 0 0.5
v -0.3 0.2 0.5
v -0.3 0.3 0.5
v -0.3 0.4 0.5
v -0.3 0.5 0.5
v -0.2 0.1 0.5
v -0.2 0.2 0.5
v -0.2 0.3 0.5
v -0.2 0.4 0.5
v -0.2 0.5 0.5
v -0.2 0.6 0.5
v -0.1 0 0.5
v -0.1 0.1 0.5
v 0.1 0 0.5
v 0.1 0.1 0.5
v 0.1 0.5 0.5
v 0.1 0.6 0.5
v 0.2 0.1 0.5
v 0.2 0.2 0.5
v 0.2 0.3 0.5
v 0.2 0.4 0.5
v 0.2 0.5 0.5
v 0.3 0 0.5
v 0.3 0.2 0.5
v 0.3 0.3 0.5
v 0.3 0.4 0.5
v 0.3 0.5 0.5
v 0.4 0.3 0.5
v 0.4 0.4 0.5
v -0.2 0.2 0.4
v -0.2 0.3 0.4
v -0.1 0 0.4
v -0.1 0.1 0.4
v -0.1 0.2 0.4
v -0.1 0.3 0.4
v 0.1 0 0.4
v 0.1 0.1 0.4
v 0.1 0.2 0.4
v 0.1 0.3 0.4
v 0.1 0.5 0.4
v 0.1 0.6 0.4
v 0.2 0.2 0.4
v 0.2 0.3 0.4
v 0.2 0.5 0.4
v 0.2 0.6 0.4
v -0.2 0.1 0.3
v -0.2 0.2 0.3
v -0.1 0.2 0.3
v -0.1 0.3 0.3
v 0.1 0.2 0.3
v 0.1 0.3 0.3
v 0.2 0.1 0.3
v 0.2 0.2 0.3
v -0.2 0.5 0.2
v -0.2 0.6 0.2
v -0.1 0.5 0.2
v -0.1 0.6 0.2
v 0.1 0.5 0.2
v 0.1 0.6 0.2
v 0.2 0.5 0.2
v 0.2 0.6 0.2
v 0 0.5 -0.1
v 0 0.6 -0.1
v 0.2 0.5 -0.1
v 0.2 0.6 -0.1
v -0.2 0.5 -0.2
v -0.2 0.6 -0.2
v 0 0.5 -0.2
v 0 0.6 -0.2
v -0.2 0.5 0.4
v -0.2 0.6 0.4
v 0 0.5 0.4
v 0 0.6 0.4
v 0 0.5 0.3
v 0 0.6 0.3
v 0.2 0.5 0.3
v 0.2 0.6 0.3
v -0.2 0.5 0
v -0.2 0.6 0
v -0.1 0.5 0
v -0.1 0.6 0
v 0.1 0.5 0
v 0.1 0.6 0
v 0.2 0.5 0
v 0.2 0.6 0
v 0 0.5 -0.2
v 0 0.6 -0.2
v 0.2 0.5 -0.2
v 0.2 0.6 -0.2
v -0.4 0.3 -0.3
v -0.4 0.4 -0.3
v -0.3 0 -0.3
v -0.3 0.2 -0.3
v -0.3 0.3 -0.3
v -0.3 0.4 -0.3
v -0.3 0.5 -0.3
v -0.2 0.4 -0.3
v -0.2 0.5 -0.3
v -0.2 0.6 -0.3
v 0 0.5 -0.3
v 0 0.6 -0.3
v 0.2 0.4 -0.3
v 0.2 0.5 -0.3
v 0.3 0 -0.3
v 0.3 0.2 -0.3
v 0.3 0.3 -0.3
v 0.3 0.4 -0.3
v 0.3 0.5 -0.3
v 0.4 0.3 -0.3
v 0.4 0.4 -0.3
v -0.3 0 0.5
v -0.1 0 0.5
v 0.1 0 0.5
v 0.3 0 0.5
v -0.1 0 0.4
v 0.1 0 0.4
v -0.3 0 -0.3
v 0.3 0 -0.3
v -0.2 0.2 0.4
v -0.1 0.2 0.4
v 0.1 0.2 0.4
v 0.2 0.2 0.4
v -0.2 0.2 0.3
v -0.1 0.2 0.3
v 0.1 0.2 0.3
v 0.2 0.2 0.3
v -0.4 0.3 0.5
v -0.3 0.3 0.5
v -0.2 0.3 0.5
v 0.2 0.3 0.5
v 0.3 0.3 0.5
v 0.4 0.3 0.5
v -0.2 0.3 0.4
v -0.1 0.3 0.4
v 0.1 0.3 0.4
v 0.2 0.3 0.4
v -0.1 0.3 0.3
v 0.1 0.3 0.3
v -0.4 0.3 -0.3
v -0.3 0.3 -0.3
v 0.3 0.3 -0.3
v 0.4 0.3 -0.3
v -0.2 0.1 0.5
v -0.1 0.1 0.5
v 0.1 0.1 0.5
v 0.2 0.1 0.5
v -0.1 0.1 0.4
v 0.1 0.1 0.4
v -0.2 0.1 0.3
v 0.2 0.1 0.3
v -0.4 0.4 0.5
v -0.3 0.4 0.5
v 0.3 0.4 0.5
v 0.4 0.4 0.5
v -0.4 0.4 -0.3
v -0.3 0.4 -0.3
v 0.3 0.4 -0.3
v 0.4 0.4 -0.3
v -0.3 0.5 0.5
v -0.2 0.5 0.5
v 0.1 0.5 0.5
v 0.2 0.5 0.5
v 0.3 0.5 0.5
v -0.2 0.5 0.4
v 0 0.5 0.4
v 0.1 0.5 0.4
v 0.2 0.5 0.4
v 0 0.5 0.3
v 0.2 0.5 0.3
v -0.2 0.5 0.2
v -0.1 0.5 0.2
v 0.1 0.5 0.2
v 0.2 0.5 0.2
v -0.2 0.5 0
v -0.1 0.5 0
v 0.1 0.5 0
v 0.2 0.5 0
v 0 0.5 -0.1
v 0.2 0.5 -0.1
v -0.2 0.5 -0.2
v 0 0.5 -0.2
v 0.2 0.5 -0.2
v -0.3 0.5 -0.3
v -0.2 0.5 -0.3
v 0 0.5 -0.3
v 0.2 0.5 -0.3
v 0.3 0.5 -0.3
v -0.2 0.6 0.5
v 0.1 0.6 0.5
v -0.2 0.6 0.4
v 0 0.6 0.4
v 0.1 0.6 0.4
v 0.2 0.6 0.4
v 0 0.6 0.3
v 0.2 0.6 0.3
v -0.2 0.6 0.2
v -0.1 0.6 0.2
v 0.1 0.6 0.2
v 0.2 0.6 0.2
v -0.2 0.6 0
v -0.1 0.6 0
v 0.1 0.6 0
v 0.2 0.6 0
v 0 0.6 -0.1
v 0.2 0.6 -0.1
v -0.2 0.6 -0.2
v 0 0.6 -0.2
v 0.2 0.6 -0.2
v -0.2 0.6 -0.3
v 0 0.6 -0.3

# faces
f 3/4/1 2/4/1 1/4/1
f 4/4/1 2/4/1 3/4/1
f 7/1/1 6/1/1 5/1/1
f 8/1/1 6/1/1 7/1/1
f 9/2/1 8/2/1 7/2/1
f 10/2/1 8/2/1 9/2/1
f 13/5/1 12/5/1 11/5/1
f 14/5/1 12/5/1 13/5/1
f 21/5/1 16/5/1 15/5/1
f 22/5/1 16/5/1 21/5/1
f 23/5/1 18/5/1 17/5/1
f 24/5/1 18/5/1 23/5/1
f 25/5/1 20/5/1 19/5/1
f 26/5/1 20/5/1 25/5/1
f 31/5/1 28/5/1 27/5/1
f 32/5/1 28/5/1 31/5/1
f 33/5/1 30/5/1 29/5/1
f 34/5/1 30/5/1 33/5/1
f 37/1/1 36/1/1 35/1/1
f 38/1/1 36/1/1 37/1/1
f 41/2/1 40/2/1 39/2/1
f 42/2/1 40/2/1 41/2/1
f 45/5/1 44/5/1 43/5/1
f 46/5/1 44/5/1 45/5/1
f 49/1/1 48/1/1 47/1/1
f 50/1/1 48/1/1 49/1/1
f 51/1/1 48/1/1 50/1/1
f 52/2/1 50/2/1 49/2/1
f 53/2/1 50/2/1 52/2/1
f 54/1/2 55/1/2 56/1/2
f 56/1/2 55/1/2 57/1/2
f 57/1/2 55/1/2 58/1/2
f 56/2/2 57/2/2 59/2/2
f 59/2/2 57/2/2 60/2/2
f 61/1/2 62/1/2 63/1/2
f 63/1/2 62/1/2 64/1/2
f 65/2/2 66/2/2 67/2/2
f 67/2/2 66/2/2 68/2/2
f 69/5/2 70/5/2 71/5/2
f 71/5/2 70/5/2 72/5/2
f 73/5/2 74/5/2 75/5/2
f 75/5/2 74/5/2 76/5/2
f 77/5/2 78/5/2 79/5/2
f 79/5/2 78/5/2 80/5/2
f 81/5/2 82/5/2 87/5/2
f 87/5/2 82/5/2 88/5/2
f 83/5/2 84/5/2 89/5/2
f 89/5/2 84/5/2 90/5/2
f 85/5/2 86/5/2 91/5/2
f 91/5/2 86/5/2 92/5/2
f 93/1/2 94/1/2 95/1/2
f 95/1/2 94/1/2 96/1/2
f 95/2/2 96/2/2 97/2/2
f 97/2/2 96/2/2 98/2/2
f 99/5/2 100/5/2 101/5/2
f 101/5/2 100/5/2 102/5/2
f 103/4/2 104/4/2 105/4/2
f 105/4/2 104/4/2 106/4/2
f 111/4/3 108/4/3 107/4/3
f 112/4/3 108/4/3 111/4/3
f 114/1/3 110/1/3 109/1/3
f 115/2/3 111/2/3 110/2/3
f 115/1/3 110/1/3 114/1/3
f 116/3/3 112/3/3 111/3/3
f 116/2/3 111/2/3 115/2/3
f 117/5/3 113/5/3 112/5/3
f 117/3/3 112/3/3 116/3/3
f 118/5/3 113/5/3 117/5/3
f 120/1/3 114/1/3 109/1/3
f 121/1/3 114/1/3 120/1/3
f 124/5/3 119/5/3 118/5/3
f 124/4/3 118/4/3 117/4/3
f 125/5/3 119/5/3 124/5/3
f 126/1/3 123/1/3 122/1/3
f 128/3/3 117/3/3 116/3/3
f 129/4/3 124/4/3 117/4/3
f 129/3/3 117/3/3 128/3/3
f 130/4/3 124/4/3 129/4/3
f 131/1/3 127/1/3 126/1/3
f 131/1/3 126/1/3 122/1/3
f 132/2/3 128/2/3 127/2/3
f 132/1/3 127/1/3 131/1/3
f 133/3/3 129/3/3 128/3/3
f 133/2/3 128/2/3 132/2/3
f 134/5/3 130/5/3 129/5/3
f 134/3/3 129/3/3 133/3/3
f 135/5/3 130/5/3 134/5/3
f 136/4/3 134/4/3 133/4/3
f 137/4/3 134/4/3 136/4/3
f 142/2/3 139/2/3 138/2/3
f 143/2/3 139/2/3 142/2/3
f 144/1/3 141/1/3 140/1/3
f 145/1/3 141/1/3 144/1/3
f 150/2/3 147/2/3 146/2/3
f 151/2/3 147/2/3 150/2/3
f 152/5/3 149/5/3 148/5/3
f 153/5/3 149/5/3 152/5/3
f 156/1/3 155/1/3 154/1/3
f 158/1/3 156/1/3 154/1/3
f 158/2/3 157/2/3 156/2/3
f 159/2/3 157/2/3 158/2/3
f 160/1/3 158/1/3 154/1/3
f 161/1/3 158/1/3 160/1/3
f 164/5/3 163/5/3 162/5/3
f 165/5/3 163/5/3 164/5/3
f 168/5/3 167/5/3 166/5/3
f 169/5/3 167/5/3 168/5/3
f 172/5/3 171/5/3 170/5/3
f 173/5/3 171/5/3 172/5/3
f 176/5/3 175/5/3 174/5/3
f 177/5/3 175/5/3 176/5/3
f 178/5/4 179/5/4 180/5/4
f 180/5/4 179/5/4 181/5/4
f 182/5/4 183/5/4 184/5/4
f 184/5/4 183/5/4 185/5/4
f 186/5/4 187/5/4 188/5/4
f 188/5/4 187/5/4 189/5/4
f 190/5/4 191/5/4 192/5/4
f 192/5/4 191/5/4 193/5/4
f 194/5/4 195/5/4 196/5/4
f 196/5/4 195/5/4 197/5/4
f 198/4/4 199/4/4 202/4/4
f 202/4/4 199/4/4 203/4/4
f 202/3/4 203/3/4 205/3/4
f 203/5/4 204/5/4 205/5/4
f 205/5/4 204/5/4 206/5/4
f 205/4/4 206/4/4 208/4/4
f 206/5/4 207/5/4 208/5/4
f 208/5/4 207/5/4 209/5/4
f 202/3/4 205/3/4 210/3/4
f 205/4/4 208/4/4 210/4/4
f 210/4/4 208/4/4 211/4/4
f 200/1/4 201/1/4 212/1/4
f 201/2/4 202/2/4 213/2/4
f 212/1/4 201/1/4 213/1/4
f 202/3/4 210/3/4 214/3/4
f 213/2/4 202/2/4 214/2/4
f 210/5/4 211/5/4 215/5/4
f 214/3/4 210/3/4 215/3/4
f 215/5/4 211/5/4 216/5/4
f 214/4/4 215/4/4 217/4/4
f 217/4/4 215/4/4 218/4/4
f 223/1/5 220/1/5 219/1/5
f 224/1/5 222/1/5 221/1/5
f 225/1/5 223/1/5 219/1/5
f 225/1/5 224/1/5 223/1/5
f 226/1/5 222/1/5 224/1/5
f 226/1/5 224/1/5 225/1/5
f 231/2/5 228/2/5 227/2/5
f 232/2/5 228/2/5 231/2/5
f 233/2/5 230/2/5 229/2/5
f 234/2/5 230/2/5 233/2/5
f 241/3/5 238/3/5 237/3/5
f 242/3/5 238/3/5 241/3/5
f 243/3/5 238/3/5 242/3/5
f 244/3/5 238/3/5 243/3/5
f 245/3/5 243/3/5 242/3/5
f 246/3/5 243/3/5 245/3/5
f 247/4/5 236/4/5 235/4/5
f 248/4/5 236/4/5 247/4/5
f 249/4/5 240/4/5 239/4/5
f 250/4/5 240/4/5 249/4/5
f 251/1/6 252/1/6 255/1/6
f 253/1/6 254/1/6 256/1/6
f 251/1/6 255/1/6 257/1/6
f 255/1/6 256/1/6 257/1/6
f 256/1/6 254/1/6 258/1/6
f 257/1/6 256/1/6 258/1/6
f 259/4/6 260/4/6 263/4/6
f 263/4/6 260/4/6 264/4/6
f 261/4/6 262/4/6 265/4/6
f 265/4/6 262/4/6 266/4/6
f 267/5/6 268/5/6 272/5/6
f 269/4/6 270/4/6 274/4/6
f 270/5/6 271/5/6 275/5/6
f 274/4/6 270/4/6 275/4/6
f 272/4/6 273/4/6 276/4/6
f 275/5/6 271/5/6 277/5/6
f 272/4/6 276/4/6 278/4/6
f 276/4/6 277/4/6 278/4/6
f 267/5/6 272/5/6 278/5/6
f 278/4/6 277/4/6 279/4/6
f 279/4/6 277/4/6 280/4/6
f 277/5/6 271/5/6 281/5/6
f 280/4/6 277/4/6 281/4/6
f 267/5/6 278/5/6 282/5/6
f 279/4/6 280/4/6 283/4/6
f 283/4/6 280/4/6 284/4/6
f 281/5/6 271/5/6 285/5/6
f 283/4/6 284/4/6 286/4/6
f 284/4/6 285/4/6 286/4/6
f 282/4/6 283/4/6 286/4/6
f 285/5/6 271/5/6 287/5/6
f 286/4/6 285/4/6 287/4/6
f 267/5/6 282/5/6 288/5/6
f 282/4/6 286/4/6 288/4/6
f 288/4/6 286/4/6 289/4/6
f 287/5/6 271/5/6 290/5/6
f 267/5/6 288/5/6 291/5/6
f 291/5/6 288/5/6 292/5/6
f 289/4/6 290/4/6 293/4/6
f 290/5/6 271/5/6 294/5/6
f 293/4/6 290/4/6 294/4/6
f 294/5/6 271/5/6 295/5/6
f 296/5/6 297/5/6 298/5/6
f 298/5/6 297/5/6 299/5/6
f 299/5/6 297/5/6 300/5/6
f 300/5/6 301/5/6 302/5/6
f 299/5/6 300/5/6 302/5/6
f 302/5/6 301/5/6 303/5/6
f 304/5/6 305/5/6 308/5/6
f 308/5/6 305/5/6 309/5/6
f 306/5/6 307/5/6 310/5/6
f 310/5/6 307/5/6 311/5/6
f 312/5/6 313/5/6 315/5/6
f 315/5/6 313/5/6 316/5/6
f 314/5/6 315/5/6 317/5/6
f 317/5/6 315/5/6 318/5/6
